<?xml version="1.0" encoding="iso-8859-1"?>
<!-- Uploaded to: SVG Repo, www.svgrepo.com, Generator: SVG Repo Mixer Tools -->
<svg fill="#000000" height="800px" width="800px" version="1.1" id="Layer_1" xmlns="http://www.w3.org/2000/svg" xmlns:xlink="http://www.w3.org/1999/xlink" 
	 viewBox="0 0 512.454 512.454" xml:space="preserve">
<g>
	<g>
		<path d="M416.227,341.788c-10.119,0-19.821,1.771-28.827,5.003l-38.976-38.976c52.493-23.148,89.136-75.634,89.136-136.694
			c0-1.847-0.259-3.63-0.701-5.339c39.089-26.92,64.701-71.979,64.701-123.068c0-11.782-9.551-21.333-21.333-21.333
			s-21.333,9.551-21.333,21.333c0,58.959-47.707,106.667-106.667,106.667c-1.414,0-2.792,0.145-4.129,0.407H202.894V21.809
			c0-10.901-8.219-20.049-19.058-21.212c-0.828-0.089-2.116-0.197-3.824-0.297C155.536-1.128,126.54,2.336,98.2,14.984
			c-54.382,24.27-87.306,75.415-87.306,156.137c0,82.481,66.853,149.333,149.333,149.333h19.613l-51.882,64.853
			c-3.385-0.553-6.856-0.853-10.398-0.853c-35.355,0-64,28.645-64,64c0,35.355,28.645,64,64,64s64-28.645,64-64
			c0-16.124-5.971-30.841-15.806-42.093l68.726-85.907h53.747c4.045,0,8.051-0.166,12.015-0.482l51.404,51.404
			c-12.92,14.955-20.752,34.428-20.752,55.744c0,47.131,38.202,85.333,85.333,85.333s85.333-38.202,85.333-85.333
			S463.359,341.788,416.227,341.788z M117.56,469.788c-11.791,0-21.333-9.542-21.333-21.333s9.542-21.333,21.333-21.333
			s21.333,9.542,21.333,21.333S129.352,469.788,117.56,469.788z M115.588,53.946c14.824-6.616,30.372-9.915,44.639-10.925v106.766
			H54.499C59.186,99.031,81.2,69.293,115.588,53.946z M160.227,277.788c-51.611,0-94.652-36.642-104.534-85.333H181.56h211.2
			c-9.881,48.692-52.923,85.333-104.534,85.333H160.227z M416.227,469.788c-23.567,0-42.667-19.099-42.667-42.667
			s19.099-42.667,42.667-42.667s42.667,19.099,42.667,42.667S439.794,469.788,416.227,469.788z"/>
	</g>
</g>
</svg>