<?xml version="1.0" encoding="iso-8859-1"?>
<!-- Uploaded to: SVG Repo, www.svgrepo.com, Generator: SVG Repo Mixer Tools -->
<!DOCTYPE svg PUBLIC "-//W3C//DTD SVG 1.1//EN" "http://www.w3.org/Graphics/SVG/1.1/DTD/svg11.dtd">
<svg fill="#000000" height="800px" width="800px" version="1.1" id="Capa_1" xmlns="http://www.w3.org/2000/svg" xmlns:xlink="http://www.w3.org/1999/xlink" 
	 viewBox="0 0 58.529 58.529" xml:space="preserve">
<path d="M58.235,56.822l-5.541-5.541c0.414-0.846,0.429-1.853-0.01-2.73l-2.111-4.22c0.106-0.821-0.145-1.68-0.774-2.309
	L27.712,19.935l2.603-2.603c1.149-0.23,2.206-0.792,3.054-1.64c2.339-2.339,2.339-6.146,0-8.485
	c-1.134-1.133-2.641-1.757-4.243-1.757s-3.109,0.624-4.242,1.757c-1.134,1.133-1.758,2.64-1.758,4.242
	c0,0.11,0.01,0.219,0.016,0.328l-1.794,1.794l-2.304-2.305c-0.888-0.886-2.229-1.024-3.271-0.442l-2.928-2.928
	c0.099-0.454,0.154-0.92,0.154-1.396c0-1.736-0.677-3.369-1.904-4.596C9.867,0.676,8.235,0,6.499,0S3.13,0.676,1.902,1.904
	c-2.534,2.534-2.534,6.658,0,9.192C3.13,12.324,4.762,13,6.499,13c0.476,0,0.942-0.055,1.396-0.154l2.928,2.928
	c-0.582,1.044-0.443,2.385,0.443,3.271l2.304,2.304l-1.794,1.794c-0.109-0.006-0.217-0.016-0.327-0.016
	c-1.603,0-3.109,0.624-4.242,1.757c-1.134,1.133-1.758,2.64-1.758,4.242c0,1.603,0.624,3.109,1.758,4.243
	c1.133,1.133,2.64,1.757,4.242,1.757s3.109-0.624,4.243-1.757c0.863-0.864,1.403-1.928,1.629-3.044l2.613-2.613L42.021,49.8
	c0.521,0.522,1.216,0.81,1.954,0.81c0.12,0,0.237-0.02,0.355-0.035l4.221,2.11c0.438,0.219,0.91,0.326,1.378,0.326
	c0.466,0,0.922-0.118,1.344-0.324l5.549,5.548c0.195,0.195,0.451,0.293,0.707,0.293s0.512-0.098,0.707-0.293
	C58.626,57.846,58.626,57.213,58.235,56.822z M26.297,8.621c0.756-0.755,1.76-1.171,2.828-1.171s2.073,0.416,2.829,1.171
	c1.559,1.56,1.559,4.097,0,5.657c-0.748,0.748-1.771,1.122-2.797,1.13c-0.016,0-0.032,0.001-0.047,0.002
	c-0.247-0.001-0.493-0.024-0.736-0.067c-0.017-0.003-0.033-0.007-0.049-0.01c-0.233-0.045-0.461-0.11-0.683-0.194
	c-0.056-0.022-0.109-0.051-0.164-0.076c-0.181-0.078-0.36-0.164-0.528-0.269c-0.231-0.15-0.453-0.315-0.652-0.515v0
	c-0.005-0.005-0.008-0.011-0.013-0.015c-0.162-0.164-0.303-0.341-0.432-0.526c-0.071-0.103-0.131-0.212-0.192-0.321
	c-0.046-0.081-0.091-0.161-0.131-0.245c-0.073-0.157-0.138-0.319-0.191-0.487c-0.009-0.026-0.016-0.053-0.024-0.079
	c-0.057-0.195-0.103-0.395-0.132-0.601l-0.009-0.062c-0.02-0.163-0.048-0.325-0.048-0.492C25.126,10.381,25.542,9.377,26.297,8.621z
	 M3.316,3.318C4.167,2.468,5.297,2,6.499,2S8.831,2.468,9.68,3.318c0.851,0.85,1.318,1.98,1.318,3.182
	c0,0.515-0.102,1.01-0.267,1.482c-0.086,0.248-0.197,0.482-0.322,0.707c-0.04,0.071-0.071,0.145-0.115,0.214
	C10.119,9.181,9.918,9.444,9.68,9.681v0c-0.238,0.237-0.501,0.438-0.78,0.614c-0.069,0.044-0.144,0.075-0.214,0.115
	c-0.223,0.124-0.454,0.234-0.699,0.32C7.513,10.897,7.016,11,6.499,11c-1.202,0-2.332-0.468-3.183-1.318
	C1.562,7.927,1.562,5.072,3.316,3.318z M9.97,11.99c0.147-0.093,0.289-0.194,0.429-0.3c0.055-0.041,0.112-0.08,0.166-0.123
	c0.173-0.139,0.34-0.287,0.5-0.445c0.009-0.009,0.02-0.017,0.029-0.026v0c0.169-0.169,0.325-0.347,0.472-0.53
	c0.042-0.053,0.08-0.108,0.12-0.162c0.107-0.141,0.209-0.285,0.303-0.434c0.013-0.02,0.028-0.038,0.04-0.058l2.246,2.245
	l-2.122,2.122L9.91,12.033C9.931,12.02,9.949,12.004,9.97,11.99z M12.679,17.631c-0.289-0.289-0.289-0.76,0-1.049l3.903-3.902
	c0.144-0.144,0.333-0.215,0.523-0.215c0.189,0,0.38,0.072,0.524,0.216l2.304,2.304l-2.475,2.475l-2.475,2.475L12.679,17.631z
	 M14.984,22.763L14.984,22.763l0.64-0.641l8.09-8.09c0.142,0.297,0.307,0.582,0.497,0.854c0.015,0.022,0.032,0.042,0.047,0.064
	c0.188,0.26,0.393,0.511,0.624,0.742v0c0.005,0.005,0.011,0.009,0.016,0.014c0.167,0.166,0.344,0.318,0.527,0.461
	c0.052,0.041,0.105,0.078,0.158,0.117c0.153,0.113,0.31,0.217,0.472,0.314c0.043,0.026,0.086,0.053,0.13,0.078
	c0.438,0.247,0.904,0.436,1.391,0.565L17.24,27.578c-0.056-0.215-0.13-0.425-0.21-0.632c-0.012-0.031-0.018-0.062-0.031-0.092
	c-0.13-0.321-0.298-0.626-0.484-0.922c-0.044-0.07-0.09-0.137-0.137-0.206c-0.204-0.296-0.426-0.581-0.687-0.841
	c-0.232-0.232-0.483-0.436-0.743-0.625c-0.021-0.015-0.041-0.032-0.063-0.047c-0.272-0.191-0.557-0.356-0.854-0.497L14.984,22.763z
	 M8.62,31.956c-0.756-0.756-1.172-1.76-1.172-2.829c0-1.068,0.416-2.072,1.172-2.828c0.756-0.755,1.76-1.171,2.828-1.171
	c0.167,0,0.328,0.028,0.491,0.048l0.062,0.009c0.205,0.028,0.404,0.074,0.597,0.131c0.029,0.009,0.058,0.017,0.086,0.026
	c0.166,0.052,0.326,0.117,0.481,0.189c0.085,0.041,0.167,0.086,0.249,0.133c0.108,0.06,0.217,0.12,0.319,0.19
	c0.19,0.133,0.375,0.278,0.542,0.446c0.211,0.211,0.389,0.444,0.544,0.689c0.043,0.068,0.073,0.142,0.112,0.212
	c0.103,0.188,0.197,0.379,0.268,0.58c0.026,0.073,0.044,0.147,0.065,0.221c0.064,0.222,0.113,0.449,0.137,0.682
	c0.005,0.049,0.01,0.097,0.014,0.146c0.019,0.289,0.015,0.582-0.028,0.879l-0.037,0.252c-0.155,0.731-0.509,1.428-1.076,1.995
	C12.765,33.466,10.131,33.466,8.62,31.956z M21.347,26.299l4.95-4.95l7.873,7.873l-1.308,1.308c-0.391,0.391-0.391,1.023,0,1.414
	c0.195,0.195,0.451,0.293,0.707,0.293s0.512-0.098,0.707-0.293l1.308-1.308l1.586,1.586l-2.308,2.308
	c-0.391,0.391-0.391,1.023,0,1.414c0.195,0.195,0.451,0.293,0.707,0.293s0.512-0.098,0.707-0.293l2.308-2.308l1.586,1.586
	l-1.308,1.308c-0.391,0.391-0.391,1.023,0,1.414c0.195,0.195,0.451,0.293,0.707,0.293s0.512-0.098,0.707-0.293l1.308-1.308
	l1.586,1.586l-2.308,2.308c-0.391,0.391-0.391,1.023,0,1.414c0.195,0.195,0.451,0.293,0.707,0.293s0.512-0.098,0.707-0.293
	l2.308-2.308l3.801,3.801c0.297,0.297,0.297,0.778,0.003,1.076l-3.875,3.875c-0.289,0.288-0.79,0.287-1.078-0.001L21.347,26.299z
	 M49.445,50.896l-3.074-1.537l1.494-1.494l1.494-1.494l1.537,3.073c0.208,0.417,0.127,0.919-0.202,1.249
	C50.363,51.023,49.862,51.104,49.445,50.896z"/>
</svg>