<svg width="816" height="523" viewBox="0 0 816 523" fill="none" xmlns="http://www.w3.org/2000/svg">
<path d="M472.985 451.612C482.272 441.789 481.926 425.981 470.183 419.284C454.019 410.066 435.503 405.348 416.594 405.878C389.451 406.638 363.721 418.15 345.066 437.881C326.41 457.612 316.357 483.945 317.118 511.089C317.647 529.998 323.395 548.22 333.504 563.843C340.848 575.193 356.65 574.654 365.937 564.831V564.831C375.225 555.008 374.071 539.481 369.369 526.806C367.355 521.38 366.218 515.613 366.053 509.718C365.656 495.553 370.902 481.811 380.638 471.514C390.373 461.217 403.8 455.21 417.965 454.813C423.86 454.648 429.682 455.46 435.212 457.167C448.13 461.152 463.697 461.435 472.985 451.612V451.612Z" fill="#DFF0D8"/>
<path d="M491.268 523.707C481.47 521.144 458.767 506.035 457.721 500.129C456.674 494.223 466.565 493.27 475.478 486.357C485.599 478.508 494.465 467.707 506.389 467.692C521.449 467.673 529.236 486.58 529.746 492.991C530.625 504.069 526.512 514.025 517.541 519.732C506.98 526.45 499.349 525.82 491.268 523.707Z" fill="#DFF0D8"/>
<path d="M764.143 25.2847C757.684 33.6951 748.941 61.1721 752.073 66.9782C755.204 72.7844 764.125 67.3797 776.272 67.7844C790.064 68.2438 804.81 72.0665 814.796 64.5624C827.408 55.0846 821.096 33.7009 817.172 27.7935C810.392 17.5855 800.197 11.5033 788.82 12.1858C775.425 12.9893 769.469 18.349 764.143 25.2847Z" fill="#DFF0D8"/>
<path d="M654.119 40.6634C643.674 42.4965 618.66 56.8388 617.043 63.2345C615.427 69.6302 625.655 71.6763 634.334 80.1845C644.189 89.8448 652.473 102.628 664.905 103.847C680.606 105.386 690.406 85.3594 691.507 78.3537C693.409 66.2477 690.006 54.8743 681.16 47.6879C670.744 39.2271 662.732 39.1517 654.119 40.6634Z" fill="#DFF0D8"/>
<path d="M677.926 407.089C676.077 420.201 663.761 429.592 651.459 424.69C634.527 417.943 619.604 406.646 608.46 391.843C592.462 370.594 585.561 343.86 589.275 317.522C592.989 291.185 607.013 267.401 628.262 251.404C643.065 240.26 660.53 233.53 678.668 231.728C691.845 230.419 701.084 242.849 699.236 255.961V255.961C697.387 269.073 684.792 277.674 672.214 281.814C666.829 283.587 661.718 286.239 657.103 289.714C646.014 298.062 638.696 310.473 636.758 324.218C634.82 337.962 638.421 351.913 646.769 363.002C650.244 367.617 654.422 371.579 659.107 374.772C670.049 382.229 679.774 393.977 677.926 407.089V407.089Z" fill="#DFF0D8"/>
<path d="M773.657 317.966C771.6 327.672 757.861 350.58 752.13 351.875C746.4 353.171 745.012 343.537 737.838 335.134C729.693 325.593 718.717 317.415 718.154 305.748C717.443 291.013 735.583 282.524 741.833 281.731C752.632 280.361 762.562 283.927 768.559 292.442C775.619 302.467 775.353 309.962 773.657 317.966Z" fill="#DFF0D8"/>
<path d="M704.433 404.322C709.685 391.865 724.294 385.817 735.153 393.869C750.099 404.954 761.874 420.003 769.002 437.524C779.236 462.676 779.058 490.863 768.509 515.884C757.96 540.905 737.904 560.71 712.752 570.944C695.231 578.073 676.236 580.149 657.865 577.187C644.519 575.034 638.65 560.353 643.902 547.896V547.896C649.154 535.439 663.831 530.243 677.326 529.445C683.104 529.103 688.841 527.821 694.303 525.599C707.429 520.258 717.895 509.923 723.4 496.865C728.905 483.808 728.998 469.099 723.657 455.973C721.435 450.511 718.347 445.509 714.558 441.133C705.709 430.914 699.182 416.778 704.433 404.322V404.322Z" fill="#DFF0D8"/>
<path d="M604.016 504.009C613.899 506.226 641.002 503.214 644.641 498.446C648.28 493.678 639.929 488.295 635.179 478.063C629.787 466.446 626.863 452.781 616.274 447.299C602.9 440.374 587.308 453.602 583.915 459.065C578.052 468.506 577.14 479.239 582.493 488.425C588.796 499.24 595.866 502.18 604.016 504.009Z" fill="#DFF0D8"/>
<path d="M747.543 227.308C734.588 230.049 721.555 221.681 721.961 208.446C722.518 190.227 728.038 172.343 738.145 156.813C752.652 134.52 775.421 118.902 801.443 113.397C827.465 107.891 854.608 112.948 876.901 127.455C892.432 137.562 904.722 151.677 912.611 168.109C918.342 180.046 909.816 192.975 896.861 195.716V195.716C883.906 198.457 871.52 189.558 863.332 179.151C859.827 174.695 855.589 170.798 850.747 167.647C839.113 160.076 824.948 157.437 811.369 160.31C797.789 163.184 785.907 171.334 778.336 182.967C775.186 187.809 772.889 193.089 771.489 198.583C768.218 211.414 760.498 224.567 747.543 227.308V227.308Z" fill="#DFF0D8"/>
<path d="M233.265 399.761C243.326 391.152 258.775 392.259 264.755 404.074C272.988 420.336 276.703 438.68 275.266 457.153C273.202 483.671 260.689 508.283 240.479 525.574C220.268 542.866 194.017 551.421 167.499 549.357C149.026 547.919 131.478 541.411 116.685 530.761C105.938 523.025 107.234 507.591 117.296 498.983V498.983C127.357 490.374 142.492 492.258 154.663 497.475C159.874 499.708 165.46 501.101 171.22 501.549C185.058 502.626 198.757 498.162 209.304 489.138C219.851 480.115 226.381 467.271 227.458 453.432C227.906 447.673 227.395 441.938 225.994 436.444C222.723 423.613 223.203 408.369 233.265 399.761V399.761Z" fill="#DFF0D8"/>
<path d="M112.334 444.826C122.187 443.666 146.257 432.082 148.072 426.494C149.886 420.906 140.42 418.643 132.709 410.73C123.954 401.745 116.815 390.066 105.249 388.437C90.6408 386.38 80.5268 403.668 79.1649 409.818C76.8116 420.447 79.4538 430.662 87.3842 437.413C96.7208 445.361 104.209 445.782 112.334 444.826Z" fill="#DFF0D8"/>
<path d="M13.6646 471.115C7.35957 478.775 -1.98253 503.8 0.577933 509.088C3.13839 514.376 11.5347 509.454 22.5777 509.822C35.1159 510.241 48.3539 513.722 57.8255 506.888C69.7883 498.256 65.1131 478.78 61.8362 473.4C56.1738 464.103 47.1938 458.563 36.7976 459.185C24.558 459.917 18.8641 464.798 13.6646 471.115Z" fill="#DFF0D8"/>
<path d="M809.976 404.288C796.735 404.288 785.716 393.403 788.852 380.538C793.169 362.83 802.272 346.476 815.374 333.374C834.181 314.566 859.69 304 886.288 304C912.886 304 938.394 314.566 957.202 333.374C970.304 346.476 979.406 362.83 983.723 380.538C986.86 393.403 975.841 404.288 962.599 404.288V404.288C949.358 404.288 939.083 393.017 933.226 381.141C930.719 376.056 927.379 371.366 923.295 367.281C913.48 357.466 900.168 351.952 886.288 351.952C872.408 351.952 859.096 357.466 849.281 367.281C845.197 371.366 841.857 376.056 839.349 381.141C833.493 393.017 823.218 404.288 809.976 404.288V404.288Z" fill="#DFF0D8"/>
</svg>
